<svg width="171" height="73" viewBox="0 0 171 73" fill="none" xmlns="http://www.w3.org/2000/svg">
<path d="M4.914 17L0.666 4.4H2.034L6.012 16.262H5.328L9.432 4.4H10.656L14.706 16.262H14.058L18.072 4.4H19.35L15.102 17H13.698L9.828 5.75H10.188L6.3 17H4.914ZM23.9155 17.09C22.9315 17.09 22.0675 16.886 21.3235 16.478C20.5795 16.058 19.9975 15.488 19.5775 14.768C19.1575 14.036 18.9475 13.202 18.9475 12.266C18.9475 11.33 19.1455 10.502 19.5415 9.782C19.9495 9.062 20.5015 8.498 21.1975 8.09C21.9055 7.67 22.6975 7.46 23.5735 7.46C24.4615 7.46 25.2475 7.664 25.9315 8.072C26.6275 8.468 27.1735 9.032 27.5695 9.764C27.9655 10.484 28.1635 11.318 28.1635 12.266C28.1635 12.326 28.1575 12.392 28.1455 12.464C28.1455 12.524 28.1455 12.59 28.1455 12.662H19.9195V11.708H27.4615L26.9575 12.086C26.9575 11.402 26.8075 10.796 26.5075 10.268C26.2195 9.728 25.8235 9.308 25.3195 9.008C24.8155 8.708 24.2335 8.558 23.5735 8.558C22.9255 8.558 22.3435 8.708 21.8275 9.008C21.3115 9.308 20.9095 9.728 20.6215 10.268C20.3335 10.808 20.1895 11.426 20.1895 12.122V12.32C20.1895 13.04 20.3455 13.676 20.6575 14.228C20.9815 14.768 21.4255 15.194 21.9895 15.506C22.5655 15.806 23.2195 15.956 23.9515 15.956C24.5275 15.956 25.0615 15.854 25.5535 15.65C26.0575 15.446 26.4895 15.134 26.8495 14.714L27.5695 15.542C27.1495 16.046 26.6215 16.43 25.9855 16.694C25.3615 16.958 24.6715 17.09 23.9155 17.09ZM29.8648 17V3.644H31.1428V17H29.8648ZM37.7228 17.09C36.7868 17.09 35.9468 16.886 35.2028 16.478C34.4708 16.058 33.8948 15.488 33.4748 14.768C33.0548 14.036 32.8448 13.202 32.8448 12.266C32.8448 11.318 33.0548 10.484 33.4748 9.764C33.8948 9.044 34.4708 8.48 35.2028 8.072C35.9468 7.664 36.7868 7.46 37.7228 7.46C38.5268 7.46 39.2528 7.616 39.9008 7.928C40.5488 8.24 41.0588 8.708 41.4308 9.332L40.4768 9.98C40.1528 9.5 39.7508 9.146 39.2708 8.918C38.7908 8.69 38.2688 8.576 37.7048 8.576C37.0328 8.576 36.4268 8.732 35.8868 9.044C35.3468 9.344 34.9208 9.77 34.6088 10.322C34.2968 10.874 34.1408 11.522 34.1408 12.266C34.1408 13.01 34.2968 13.658 34.6088 14.21C34.9208 14.762 35.3468 15.194 35.8868 15.506C36.4268 15.806 37.0328 15.956 37.7048 15.956C38.2688 15.956 38.7908 15.842 39.2708 15.614C39.7508 15.386 40.1528 15.038 40.4768 14.57L41.4308 15.218C41.0588 15.83 40.5488 16.298 39.9008 16.622C39.2528 16.934 38.5268 17.09 37.7228 17.09ZM46.7352 17.09C45.8232 17.09 45.0012 16.886 44.2692 16.478C43.5492 16.058 42.9792 15.488 42.5592 14.768C42.1392 14.036 41.9292 13.202 41.9292 12.266C41.9292 11.318 42.1392 10.484 42.5592 9.764C42.9792 9.044 43.5492 8.48 44.2692 8.072C44.9892 7.664 45.8112 7.46 46.7352 7.46C47.6712 7.46 48.4992 7.664 49.2192 8.072C49.9512 8.48 50.5212 9.044 50.9292 9.764C51.3492 10.484 51.5592 11.318 51.5592 12.266C51.5592 13.202 51.3492 14.036 50.9292 14.768C50.5212 15.488 49.9512 16.058 49.2192 16.478C48.4872 16.886 47.6592 17.09 46.7352 17.09ZM46.7352 15.956C47.4192 15.956 48.0252 15.806 48.5532 15.506C49.0812 15.194 49.4952 14.762 49.7952 14.21C50.1072 13.646 50.2632 12.998 50.2632 12.266C50.2632 11.522 50.1072 10.874 49.7952 10.322C49.4952 9.77 49.0812 9.344 48.5532 9.044C48.0252 8.732 47.4252 8.576 46.7532 8.576C46.0812 8.576 45.4812 8.732 44.9532 9.044C44.4252 9.344 44.0052 9.77 43.6932 10.322C43.3812 10.874 43.2252 11.522 43.2252 12.266C43.2252 12.998 43.3812 13.646 43.6932 14.21C44.0052 14.762 44.4252 15.194 44.9532 15.506C45.4812 15.806 46.0752 15.956 46.7352 15.956ZM65.0763 7.46C65.8443 7.46 66.5103 7.61 67.0743 7.91C67.6503 8.198 68.0943 8.642 68.4063 9.242C68.7303 9.842 68.8923 10.598 68.8923 11.51V17H67.6143V11.636C67.6143 10.64 67.3743 9.89 66.8943 9.386C66.4263 8.87 65.7603 8.612 64.8963 8.612C64.2483 8.612 63.6843 8.75 63.2043 9.026C62.7363 9.29 62.3703 9.68 62.1063 10.196C61.8543 10.7 61.7283 11.312 61.7283 12.032V17H60.4503V11.636C60.4503 10.64 60.2103 9.89 59.7303 9.386C59.2503 8.87 58.5783 8.612 57.7143 8.612C57.0783 8.612 56.5203 8.75 56.0403 9.026C55.5603 9.29 55.1883 9.68 54.9243 10.196C54.6723 10.7 54.5463 11.312 54.5463 12.032V17H53.2683V7.55H54.4923V10.106L54.2943 9.656C54.5823 8.972 55.0443 8.438 55.6803 8.054C56.3283 7.658 57.0903 7.46 57.9663 7.46C58.8903 7.46 59.6763 7.694 60.3243 8.162C60.9723 8.618 61.3923 9.308 61.5843 10.232L61.0803 10.034C61.3563 9.266 61.8423 8.648 62.5383 8.18C63.2463 7.7 64.0923 7.46 65.0763 7.46ZM75.4722 17.09C74.4882 17.09 73.6242 16.886 72.8802 16.478C72.1362 16.058 71.5542 15.488 71.1342 14.768C70.7142 14.036 70.5042 13.202 70.5042 12.266C70.5042 11.33 70.7022 10.502 71.0982 9.782C71.5062 9.062 72.0582 8.498 72.7542 8.09C73.4622 7.67 74.2542 7.46 75.1302 7.46C76.0182 7.46 76.8042 7.664 77.4882 8.072C78.1842 8.468 78.7302 9.032 79.1262 9.764C79.5222 10.484 79.7202 11.318 79.7202 12.266C79.7202 12.326 79.7142 12.392 79.7022 12.464C79.7022 12.524 79.7022 12.59 79.7022 12.662H71.4762V11.708H79.0182L78.5142 12.086C78.5142 11.402 78.3642 10.796 78.0642 10.268C77.7762 9.728 77.3802 9.308 76.8762 9.008C76.3722 8.708 75.7902 8.558 75.1302 8.558C74.4822 8.558 73.9002 8.708 73.3842 9.008C72.8682 9.308 72.4662 9.728 72.1782 10.268C71.8902 10.808 71.7462 11.426 71.7462 12.122V12.32C71.7462 13.04 71.9022 13.676 72.2142 14.228C72.5382 14.768 72.9822 15.194 73.5462 15.506C74.1222 15.806 74.7762 15.956 75.5082 15.956C76.0842 15.956 76.6182 15.854 77.1102 15.65C77.6142 15.446 78.0462 15.134 78.4062 14.714L79.1262 15.542C78.7062 16.046 78.1782 16.43 77.5422 16.694C76.9182 16.958 76.2282 17.09 75.4722 17.09ZM88.2204 17.09C87.3324 17.09 86.6484 16.85 86.1684 16.37C85.6884 15.89 85.4484 15.212 85.4484 14.336V5.462H86.7264V14.264C86.7264 14.816 86.8644 15.242 87.1404 15.542C87.4284 15.842 87.8364 15.992 88.3644 15.992C88.9284 15.992 89.3964 15.83 89.7684 15.506L90.2184 16.424C89.9664 16.652 89.6604 16.82 89.3004 16.928C88.9524 17.036 88.5924 17.09 88.2204 17.09ZM83.7564 8.612V7.55H89.6064V8.612H83.7564ZM95.1629 17.09C94.2509 17.09 93.4289 16.886 92.6969 16.478C91.9769 16.058 91.4069 15.488 90.9869 14.768C90.5669 14.036 90.3569 13.202 90.3569 12.266C90.3569 11.318 90.5669 10.484 90.9869 9.764C91.4069 9.044 91.9769 8.48 92.6969 8.072C93.4169 7.664 94.2389 7.46 95.1629 7.46C96.0989 7.46 96.9269 7.664 97.6469 8.072C98.3789 8.48 98.9489 9.044 99.3569 9.764C99.7769 10.484 99.9869 11.318 99.9869 12.266C99.9869 13.202 99.7769 14.036 99.3569 14.768C98.9489 15.488 98.3789 16.058 97.6469 16.478C96.9149 16.886 96.0869 17.09 95.1629 17.09ZM95.1629 15.956C95.8469 15.956 96.4529 15.806 96.9809 15.506C97.5089 15.194 97.9229 14.762 98.2229 14.21C98.5349 13.646 98.6909 12.998 98.6909 12.266C98.6909 11.522 98.5349 10.874 98.2229 10.322C97.9229 9.77 97.5089 9.344 96.9809 9.044C96.4529 8.732 95.8529 8.576 95.1809 8.576C94.5089 8.576 93.9089 8.732 93.3809 9.044C92.8529 9.344 92.4329 9.77 92.1209 10.322C91.8089 10.874 91.6529 11.522 91.6529 12.266C91.6529 12.998 91.8089 13.646 92.1209 14.21C92.4329 14.762 92.8529 15.194 93.3809 15.506C93.9089 15.806 94.5029 15.956 95.1629 15.956Z" fill="#F6F0AC" fill-opacity="0.75"/>
<path d="M22.656 54.448C22.656 56.608 21.12 58.048 19.392 58.048C17.28 58.048 16.272 55.792 16.272 52.384V45.76H25.44V40H16.272V31.648H8.496V35.728C8.496 38.896 8.064 40 4.944 40H1.536V45.76H8.496V52.384C8.496 59.824 11.808 64.768 18.624 64.768C23.904 64.768 28.656 61.792 28.704 57.376L22.656 54.448ZM31.317 64.24H39.093V52.384C39.093 48.256 41.061 45.472 43.653 45.472C46.245 45.472 47.733 48.16 47.733 52.144V64.24H55.509V52.144C55.509 48.16 57.285 45.472 59.877 45.472C62.469 45.472 64.149 48.16 64.149 52.144V64.24H71.925V52.144C71.925 44.272 66.741 39.04 60.405 39.04C56.277 39.04 53.733 41.248 52.581 44.608C52.005 41.248 48.645 39.04 45.045 39.04C41.589 39.04 39.525 41.056 39.093 44.128V40H31.317V64.24ZM94.3459 38.992C89.5939 38.992 85.6579 41.008 83.4019 44.416V39.04H74.5219V44.8H83.1619C81.9619 46.768 81.2899 49.12 81.2899 51.808V58.24H75.0019V64H94.8739V58.24H89.1139V52.288C89.1139 49.024 91.2739 46.816 94.3459 46.816C96.6019 46.816 98.3779 48.016 98.8579 49.792L105.77 47.2C104.714 42.256 100.394 38.992 94.3459 38.992ZM136.546 40L133.186 59.296L129.826 40H120.706L117.346 59.296L113.986 40H105.874L110.05 64H123.058L125.266 51.328L127.474 64H140.482L144.658 40H136.546ZM149.944 64.96C152.584 64.96 154.744 62.848 154.744 60.16C154.744 57.568 152.68 55.36 149.944 55.36C147.304 55.36 145.144 57.52 145.144 60.16C145.144 62.8 147.304 64.96 149.944 64.96Z" fill="url(#paint0_linear_103_74)"/>
<defs>
<linearGradient id="paint0_linear_103_74" x1="0" y1="49.5" x2="342" y2="49.5" gradientUnits="userSpaceOnUse">
<stop stop-color="#FFEDB3"/>
<stop offset="1" stop-color="#FFF9E6"/>
</linearGradient>
</defs>
</svg>
