<svg width="186" height="42" viewBox="0 0 186 42" fill="none" xmlns="http://www.w3.org/2000/svg">
<path d="M27.32 29.06C27.32 31.76 25.4 33.56 23.24 33.56C20.6 33.56 19.34 30.74 19.34 26.48V18.2H30.8V11H19.34V0.559999H9.62V5.66C9.62 9.62 9.08 11 5.18 11H0.92V18.2H9.62V26.48C9.62 35.78 13.76 41.96 22.28 41.96C28.88 41.96 34.82 38.24 34.88 32.72L27.32 29.06ZM39.9462 41.3H49.6662V26.48C49.6662 21.32 52.1262 17.84 55.3663 17.84C58.6062 17.84 60.4663 21.2 60.4663 26.18V41.3H70.1863V26.18C70.1863 21.2 72.4063 17.84 75.6463 17.84C78.8862 17.84 80.9863 21.2 80.9863 26.18V41.3H90.7063V26.18C90.7063 16.34 84.2263 9.8 76.3063 9.8C71.1462 9.8 67.9663 12.56 66.5262 16.76C65.8063 12.56 61.6063 9.8 57.1062 9.8C52.7862 9.8 50.2062 12.32 49.6662 16.16V11H39.9462V41.3ZM120.532 9.74C114.592 9.74 109.672 12.26 106.852 16.52V9.8H95.7523V17H106.552C105.052 19.46 104.212 22.4 104.212 25.76V33.8H96.3523V41H121.192V33.8H113.992V26.36C113.992 22.28 116.692 19.52 120.532 19.52C123.352 19.52 125.572 21.02 126.172 23.24L134.812 20C133.492 13.82 128.092 9.74 120.532 9.74ZM175.082 11L170.882 35.12L166.682 11H155.282L151.082 35.12L146.882 11H136.742L141.962 41H158.222L160.982 25.16L163.742 41H180.002L185.222 11H175.082Z" fill="url(#paint0_linear_2_49)"/>
<defs>
<linearGradient id="paint0_linear_2_49" x1="-1" y1="23" x2="199" y2="23" gradientUnits="userSpaceOnUse">
<stop stop-color="#FFEDB3"/>
<stop offset="1" stop-color="#FFF9E6"/>
</linearGradient>
</defs>
</svg>
