<svg width="410" height="435" viewBox="0 0 410 435" fill="none" xmlns="http://www.w3.org/2000/svg">
<path d="M508.768 414.944L508.507 418.921L721.396 451.43L507.347 427.733L506.57 431.641L713.393 491.66L504.269 440.226L502.988 444L700.209 530.502L499.587 452.211L497.824 455.785L682.067 567.289L493.38 463.483L491.166 466.796L659.279 601.395L485.756 473.847L483.128 476.844L632.234 632.234L476.843 483.128L473.847 485.756L601.395 659.279L466.796 491.166L463.482 493.381L567.289 682.067L455.785 497.824L452.211 499.587L530.501 700.209L444 502.988L440.226 504.269L491.66 713.394L431.641 506.57L427.732 507.347L451.43 721.396L418.921 508.507L414.944 508.768L410.5 724.079L406.056 508.768L402.079 508.507L369.57 721.396L393.268 507.347L389.359 506.57L329.34 713.393L380.774 504.269L377 502.988L290.499 700.209L368.789 499.587L365.215 497.824L253.711 682.067L357.518 493.381L354.204 491.166L219.605 659.279L347.153 485.756L344.157 483.128L188.766 632.234L337.872 476.844L335.244 473.847L161.721 601.395L329.834 466.796L327.62 463.483L138.933 567.289L323.176 455.785L321.413 452.211L120.791 530.502L318.012 444L316.731 440.226L107.607 491.66L314.43 431.641L313.653 427.733L99.6042 451.43L312.493 418.921L312.232 414.944L96.9214 410.5L312.232 406.056L312.493 402.079L99.6042 369.57L313.653 393.268L314.43 389.359L107.606 329.34L316.731 380.774L318.012 377L120.791 290.499L321.413 368.789L323.176 365.215L138.933 253.711L327.62 357.518L329.834 354.204L161.721 219.605L335.244 347.153L337.872 344.157L188.766 188.766L344.157 337.872L347.153 335.244L219.605 161.721L354.204 329.834L357.518 327.62L253.711 138.933L365.215 323.176L368.789 321.413L290.499 120.791L377 318.012L380.774 316.731L329.34 107.607L389.359 314.43L393.268 313.653L369.57 99.6041L402.079 312.493L406.056 312.232L410.5 96.9215L414.944 312.232L418.921 312.493L451.43 99.6041L427.732 313.653L431.641 314.43L491.66 107.606L440.226 316.731L444 318.012L530.501 120.791L452.211 321.413L455.785 323.176L567.289 138.933L463.482 327.62L466.796 329.834L601.395 161.722L473.847 335.244L476.843 337.872L632.234 188.766L483.128 344.157L485.756 347.153L659.279 219.605L491.166 354.204L493.38 357.518L682.067 253.711L497.824 365.215L499.587 368.789L700.209 290.499L502.988 377L504.269 380.774L713.394 329.34L506.57 389.359L507.347 393.268L721.396 369.57L508.507 402.079L508.768 406.056L724.079 410.5L508.768 414.944Z" stroke="url(#paint0_linear_3_28)" stroke-width="4"/>
<defs>
<linearGradient id="paint0_linear_3_28" x1="410.5" y1="4.30916e-05" x2="410.5" y2="821" gradientUnits="userSpaceOnUse">
<stop stop-color="#FFEDB3"/>
<stop offset="1" stop-color="#FFF9E6"/>
</linearGradient>
</defs>
</svg>
